<svg xmlns="http://www.w3.org/2000/svg">
    <symbol id="Facebook" viewBox="0 0 20 20">
        <path d="M20 10.0607C20 4.504 15.5233 0 10 0C4.47667 0 0 4.504 0 10.0607C0 15.0833 3.656 19.2453 8.43733 20V12.9693H5.89867V10.06H8.43733V7.844C8.43733 5.32267 9.93 3.92933 12.2147 3.92933C13.308 3.92933 14.4533 4.126 14.4533 4.126V6.602H13.1913C11.9493 6.602 11.5627 7.378 11.5627 8.174V10.0607H14.336L13.8927 12.9687H11.5627V20C16.344 19.2453 20 15.0833 20 10.0607Z"/>
    </symbol>

    <symbol id="Instagram" viewBox="0 0 24 24">
        <path fill-rule="evenodd" clip-rule="evenodd" d="M12 3C9.5556 3 9.2496 3.0102 8.2896 3.054C7.3314 3.0978 6.6768 3.2502 6.1044 3.4728C5.5044 3.6984 4.9602 4.0524 4.5102 4.5108C4.05253 4.96028 3.69831 5.5041 3.4722 6.1044C3.2508 6.6768 3.0978 7.332 3.054 8.2902C3.0108 9.2496 3 9.555 3 12C3 14.445 3.0102 14.7504 3.054 15.7104C3.0978 16.6686 3.2502 17.3232 3.4728 17.8956C3.6984 18.4956 4.0524 19.0398 4.5108 19.4898C4.96029 19.9475 5.50411 20.3017 6.1044 20.5278C6.6768 20.7498 7.3314 20.9022 8.2896 20.946C9.2496 20.9898 9.5556 21 12 21C14.4444 21 14.7504 20.9898 15.7104 20.946C16.6686 20.9022 17.3232 20.7498 17.8956 20.5272C18.4956 20.3016 19.0398 19.9476 19.4898 19.4892C19.9475 19.0397 20.3017 18.4959 20.5278 17.8956C20.7498 17.3232 20.9022 16.6686 20.946 15.7104C20.9898 14.7504 21 14.4444 21 12C21 9.5556 20.9898 9.2496 20.946 8.2896C20.9022 7.3314 20.7498 6.6768 20.5272 6.1044C20.3012 5.50384 19.947 4.95979 19.4892 4.5102C19.0397 4.05253 18.4959 3.69831 17.8956 3.4722C17.3232 3.2508 16.668 3.0978 15.7098 3.054C14.7504 3.0108 14.445 3 12 3ZM12 4.6218C14.403 4.6218 14.688 4.6308 15.6372 4.674C16.5144 4.7142 16.9908 4.86 17.3082 4.9842C17.7282 5.1468 18.0282 5.3424 18.3432 5.6568C18.6582 5.9718 18.8532 6.2718 19.0158 6.6918C19.1394 7.0092 19.2858 7.4856 19.326 8.3628C19.3692 9.312 19.3782 9.597 19.3782 12C19.3782 14.403 19.3692 14.688 19.326 15.6372C19.2858 16.5144 19.14 16.9908 19.0158 17.3082C18.8718 17.6991 18.6419 18.0528 18.3432 18.3432C18.0528 18.642 17.6992 18.8718 17.3082 19.0158C16.9908 19.1394 16.5144 19.2858 15.6372 19.326C14.688 19.3692 14.4036 19.3782 12 19.3782C9.5964 19.3782 9.312 19.3692 8.3628 19.326C7.4856 19.2858 7.0092 19.14 6.6918 19.0158C6.30087 18.8718 5.9472 18.6419 5.6568 18.3432C5.35811 18.0528 5.12828 17.6991 4.9842 17.3082C4.8606 16.9908 4.7142 16.5144 4.674 15.6372C4.6308 14.688 4.6218 14.403 4.6218 12C4.6218 9.597 4.6308 9.312 4.674 8.3628C4.7142 7.4856 4.86 7.0092 4.9842 6.6918C5.1468 6.2718 5.3424 5.9718 5.6568 5.6568C5.94716 5.35803 6.30085 5.12819 6.6918 4.9842C7.0092 4.8606 7.4856 4.7142 8.3628 4.674C9.312 4.6308 9.597 4.6218 12 4.6218Z"/>
        <path fill-rule="evenodd" clip-rule="evenodd" d="M12 15.003C11.6057 15.003 11.2152 14.9254 10.8508 14.7744C10.4865 14.6235 10.1554 14.4023 9.87658 14.1235C9.59773 13.8446 9.37653 13.5136 9.22561 13.1492C9.0747 12.7849 8.99702 12.3944 8.99702 12C8.99702 11.6057 9.0747 11.2152 9.22561 10.8508C9.37653 10.4865 9.59773 10.1554 9.87658 9.87659C10.1554 9.59774 10.4865 9.37654 10.8508 9.22562C11.2152 9.07471 11.6057 8.99703 12 8.99703C12.7965 8.99703 13.5603 9.31342 14.1235 9.87659C14.6866 10.4398 15.003 11.2036 15.003 12C15.003 12.7965 14.6866 13.5603 14.1235 14.1235C13.5603 14.6866 12.7965 15.003 12 15.003ZM12 7.37403C10.7731 7.37403 9.59649 7.86141 8.72895 8.72896C7.8614 9.5965 7.37402 10.7731 7.37402 12C7.37402 13.2269 7.8614 14.4036 8.72895 15.2711C9.59649 16.1387 10.7731 16.626 12 16.626C13.2269 16.626 14.4036 16.1387 15.2711 15.2711C16.1386 14.4036 16.626 13.2269 16.626 12C16.626 10.7731 16.1386 9.5965 15.2711 8.72896C14.4036 7.86141 13.2269 7.37403 12 7.37403ZM17.9718 7.29003C17.9718 7.58005 17.8566 7.85818 17.6515 8.06325C17.4465 8.26833 17.1683 8.38353 16.8783 8.38353C16.5883 8.38353 16.3102 8.26833 16.1051 8.06325C15.9 7.85818 15.7848 7.58005 15.7848 7.29003C15.7848 7.00002 15.9 6.72188 16.1051 6.51681C16.3102 6.31174 16.5883 6.19653 16.8783 6.19653C17.1683 6.19653 17.4465 6.31174 17.6515 6.51681C17.8566 6.72188 17.9718 7.00002 17.9718 7.29003Z"/>
    </symbol>

    <symbol id="Tiktok" viewBox="0 0 20 24" >
        <path d="M18.1154 6.00894C17.0381 5.30651 16.2605 4.18262 16.018 2.87246C15.9656 2.5894 15.9368 2.29807 15.9368 2H12.4984L12.4929 15.78C12.435 17.3231 11.165 18.5616 9.60804 18.5616C9.12413 18.5616 8.66848 18.4406 8.26729 18.2295C7.3473 17.7454 6.71771 16.781 6.71771 15.6713C6.71771 14.0775 8.01437 12.7808 9.60804 12.7808C9.90553 12.7808 10.1909 12.8299 10.4609 12.9145V9.40424C10.1815 9.3662 9.89765 9.34242 9.60804 9.34242C6.11829 9.34242 3.2793 12.1816 3.2793 15.6713C3.2793 17.8124 4.34905 19.7072 5.98108 20.853C7.00906 21.5747 8.25948 22 9.60804 22C13.0978 22 15.9368 19.161 15.9368 15.6713V8.68367C17.2854 9.65161 18.9376 10.222 20.7205 10.222V6.7836C19.7601 6.7836 18.8656 6.49808 18.1154 6.00894Z"/>
    </symbol>

    <symbol id="Youtube" viewBox="0 0 20 14" >
        <path fill-rule="evenodd" clip-rule="evenodd" d="M17.792 0.414829C18.6521 0.645893 19.3325 1.32626 19.5635 2.18633C19.9872 3.75244 20 7.00019 20 7.00019C20 7.00019 20 10.2608 19.5764 11.8141C19.3453 12.6741 18.665 13.3545 17.8049 13.5856C16.2516 14.0092 10 14.0092 10 14.0092C10 14.0092 3.74839 14.0092 2.19512 13.5856C1.33504 13.3545 0.654686 12.6741 0.42362 11.8141C0 10.248 0 7.00019 0 7.00019C0 7.00019 0 3.75244 0.410783 2.19917C0.641849 1.33909 1.32221 0.658735 2.18229 0.427671C3.73556 0.00404477 9.98716 -0.00878906 9.98716 -0.00878906C9.98716 -0.00878906 16.2388 -0.00878906 17.792 0.414829ZM13.1836 7.0002L7.99743 10.004V3.99635L13.1836 7.0002Z"/>
    </symbol>
</svg>
